<?xml version="1.0" encoding="UTF-8" standalone="no"?>
<!DOCTYPE svg PUBLIC "-//W3C//DTD SVG 1.1//EN"
 "http://www.w3.org/Graphics/SVG/1.1/DTD/svg11.dtd">
<!-- Generated by graphviz version 2.40.1 (20161225.0304)
 -->
<!-- Title: G Pages: 1 -->
<svg width="134pt" height="188pt"
 viewBox="0.00 0.00 134.00 188.00" xmlns="http://www.w3.org/2000/svg" xmlns:xlink="http://www.w3.org/1999/xlink">
<g id="graph0" class="graph" transform="scale(1 1) rotate(0) translate(4 184)">
<title>G</title>
<polygon fill="#ffffff" stroke="transparent" points="-4,4 -4,-184 130,-184 130,4 -4,4"/>
<!-- main -->
<g id="node1" class="node">
<title>main</title>
<polygon fill="none" stroke="#000000" points="90,-180 36,-180 36,-144 90,-144 90,-180"/>
<text text-anchor="middle" x="63" y="-157.8" font-family="Times,serif" font-size="14.00" fill="#000000">main</text>
</g>
<!-- f -->
<g id="node2" class="node">
<title>f</title>
<ellipse fill="none" stroke="#000000" cx="63" cy="-90" rx="27" ry="18"/>
<text text-anchor="middle" x="63" y="-85.8" font-family="Times,serif" font-size="14.00" fill="#000000">f</text>
</g>
<!-- main&#45;&gt;f -->
<g id="edge1" class="edge">
<title>main&#45;&gt;f</title>
<path fill="none" stroke="#000000" d="M63,-143.8314C63,-136.131 63,-126.9743 63,-118.4166"/>
<polygon fill="#000000" stroke="#000000" points="66.5001,-118.4132 63,-108.4133 59.5001,-118.4133 66.5001,-118.4132"/>
</g>
<!-- f&#45;&gt;f -->
<g id="edge3" class="edge">
<title>f&#45;&gt;f</title>
<path fill="none" stroke="#000000" stroke-dasharray="1,5" d="M82.895,-102.4321C95.688,-105.6753 108,-101.5313 108,-90 108,-81.6218 101.5006,-77.1433 93.0395,-76.5644"/>
<polygon fill="#000000" stroke="#000000" points="92.5019,-73.1004 82.895,-77.5679 93.191,-80.0665 92.5019,-73.1004"/>
</g>
<!-- g -->
<g id="node3" class="node">
<title>g</title>
<ellipse fill="none" stroke="#000000" cx="27" cy="-18" rx="27" ry="18"/>
<text text-anchor="middle" x="27" y="-13.8" font-family="Times,serif" font-size="14.00" fill="#000000">g</text>
</g>
<!-- f&#45;&gt;g -->
<g id="edge2" class="edge">
<title>f&#45;&gt;g</title>
<path fill="none" stroke="#000000" d="M54.2854,-72.5708C50.0403,-64.0807 44.8464,-53.6929 40.1337,-44.2674"/>
<polygon fill="#000000" stroke="#000000" points="43.237,-42.6477 35.6343,-35.2687 36.976,-45.7782 43.237,-42.6477"/>
</g>
<!-- h -->
<g id="node4" class="node">
<title>h</title>
<ellipse fill="none" stroke="#000000" cx="99" cy="-18" rx="27" ry="18"/>
<text text-anchor="middle" x="99" y="-13.8" font-family="Times,serif" font-size="14.00" fill="#000000">h</text>
</g>
<!-- f&#45;&gt;h -->
<g id="edge4" class="edge">
<title>f&#45;&gt;h</title>
<path fill="none" stroke="#000000" d="M71.7146,-72.5708C75.9597,-64.0807 81.1536,-53.6929 85.8663,-44.2674"/>
<polygon fill="#000000" stroke="#000000" points="89.024,-45.7782 90.3657,-35.2687 82.763,-42.6477 89.024,-45.7782"/>
</g>
</g>
</svg>
