<svg width="705.1" height="489.50000000000006" xmlns="http://www.w3.org/2000/svg" xmlns:xlink="http://www.w3.org/1999/xlink"><line x1="210.0" y1="6.0" x2="57.5" y2="29.0" style="stroke:black; stroke-width:1px;" />
<line x1="57.5" y1="35.0" x2="57.5" y2="58.0" style="stroke:black; stroke-width:1px;" />
<line x1="210.0" y1="6.0" x2="111.75" y2="29.0" style="stroke:black; stroke-width:1px;" />
<line x1="210.0" y1="6.0" x2="166.0" y2="29.0" style="stroke:black; stroke-width:1px;" />
<line x1="166.0" y1="35.0" x2="166.0" y2="58.0" style="stroke:black; stroke-width:1px;" />
<line x1="210.0" y1="6.0" x2="203.0" y2="29.0" style="stroke:black; stroke-width:1px;" />
<line x1="210.0" y1="6.0" x2="240.0" y2="29.0" style="stroke:black; stroke-width:1px;" />
<line x1="240.0" y1="35.0" x2="240.0" y2="58.0" style="stroke:black; stroke-width:1px;" />
<line x1="210.0" y1="6.0" x2="264.5" y2="29.0" style="stroke:black; stroke-width:1px;" />
<line x1="210.0" y1="6.0" x2="289.0" y2="29.0" style="stroke:black; stroke-width:1px;" />
<line x1="289.0" y1="35.0" x2="289.0" y2="58.0" style="stroke:black; stroke-width:1px;" />
<line x1="210.0" y1="6.0" x2="313.5" y2="29.0" style="stroke:black; stroke-width:1px;" />
<line x1="210.0" y1="6.0" x2="338.0" y2="29.0" style="stroke:black; stroke-width:1px;" />
<line x1="338.0" y1="35.0" x2="338.0" y2="58.0" style="stroke:black; stroke-width:1px;" />
<line x1="210.0" y1="6.0" x2="362.5" y2="29.0" style="stroke:black; stroke-width:1px;" />
<rect x="356.0" y="29.0" width="13.0" height="12.0" style="fill:orange; stroke:rgb(0,0,0);" rx="1"/>
<text x="358" y="38" style="font-family:sans-serif;font-size:10px;">
\n
</text>
<rect x="333.0" y="58.0" width="10.0" height="12.0" style="fill:orange; stroke:rgb(0,0,0);" rx="1"/>
<text x="335" y="67" style="font-family:sans-serif;font-size:10px;">
3
</text>
<rect x="46.5" y="29.0" width="22.0" height="12.0" style="fill:orange; stroke:rgb(0,0,0);" rx="1"/>
<text x="48" y="38" style="font-family:sans-serif;font-size:10px;">
row
</text>
<rect x="0.0" y="58.0" width="115.0" height="12.0" style="fill:orange; stroke:rgb(0,0,0);" rx="1"/>
<text x="2" y="67" style="font-family:sans-serif;font-size:10px;">
10···10·,2··444··5,·3,4,5
</text>
<rect x="284.0" y="58.0" width="10.0" height="12.0" style="fill:orange; stroke:rgb(0,0,0);" rx="1"/>
<text x="286" y="67" style="font-family:sans-serif;font-size:10px;">
2
</text>
<rect x="155.0" y="29.0" width="22.0" height="12.0" style="fill:orange; stroke:rgb(0,0,0);" rx="1"/>
<text x="157" y="38" style="font-family:sans-serif;font-size:10px;">
row
</text>
<rect x="201.5" y="0.0" width="17.0" height="12.0" style="fill:orange; stroke:rgb(0,0,0);" rx="1"/>
<text x="203" y="9" style="font-family:sans-serif;font-size:10px;">
file
</text>
<rect x="196.5" y="29.0" width="13.0" height="12.0" style="fill:orange; stroke:rgb(0,0,0);" rx="1"/>
<text x="198" y="38" style="font-family:sans-serif;font-size:10px;">
\n
</text>
<rect x="307.0" y="29.0" width="13.0" height="12.0" style="fill:orange; stroke:rgb(0,0,0);" rx="1"/>
<text x="309" y="38" style="font-family:sans-serif;font-size:10px;">
\n
</text>
<rect x="327.0" y="29.0" width="22.0" height="12.0" style="fill:orange; stroke:rgb(0,0,0);" rx="1"/>
<text x="329" y="38" style="font-family:sans-serif;font-size:10px;">
row
</text>
<rect x="229.0" y="29.0" width="22.0" height="12.0" style="fill:orange; stroke:rgb(0,0,0);" rx="1"/>
<text x="231" y="38" style="font-family:sans-serif;font-size:10px;">
row
</text>
<rect x="217.0" y="58.0" width="46.0" height="12.0" style="fill:orange; stroke:rgb(0,0,0);" rx="1"/>
<text x="219" y="67" style="font-family:sans-serif;font-size:10px;">
4,5,6,7,8
</text>
<rect x="258.0" y="29.0" width="13.0" height="12.0" style="fill:orange; stroke:rgb(0,0,0);" rx="1"/>
<text x="260" y="38" style="font-family:sans-serif;font-size:10px;">
\n
</text>
<rect x="105.25" y="29.0" width="13.0" height="12.0" style="fill:orange; stroke:rgb(0,0,0);" rx="1"/>
<text x="107" y="38" style="font-family:sans-serif;font-size:10px;">
\n
</text>
<rect x="122.0" y="58.0" width="88.0" height="12.0" style="fill:orange; stroke:rgb(0,0,0);" rx="1"/>
<text x="124" y="67" style="font-family:sans-serif;font-size:10px;">
5,6,71··45··56,7,8
</text>
<rect x="278.0" y="29.0" width="22.0" height="12.0" style="fill:orange; stroke:rgb(0,0,0);" rx="1"/>
<text x="280" y="38" style="font-family:sans-serif;font-size:10px;">
row
</text>
</svg>